<?xml version="1.0" encoding="utf-8"?>
<!-- Generator: Adobe Illustrator 24.2.3, SVG Export Plug-In . SVG Version: 6.00 Build 0)  -->
<svg version="1.1" id="Layer_1" xmlns="http://www.w3.org/2000/svg" xmlns:xlink="http://www.w3.org/1999/xlink" x="0px" y="0px"
	 viewBox="0 0 425.2 425.2" style="enable-background:new 0 0 425.2 425.2;" xml:space="preserve">
<style type="text/css">
	.st0{fill:#FFFFFF;}
</style>
<g>
	<g>
		<path d="M422,212.6C422,328.3,328.3,422,212.6,422S3.2,328.3,3.2,212.6S96.9,3.2,212.6,3.2C328.3,3.2,422,96.9,422,212.6z"/>
	</g>
	<g>
		<g>
			<g>
				<path class="st0" d="M213,153.7c-2.9,0-5.5,1.2-7.4,3.2c-1.9-2-4.5-3.2-7.4-3.2c-2.9,0-5.5,1.2-7.4,3.2c-1.9-2-4.5-3.2-7.4-3.2
					c-2.9,0-5.5,1.2-7.4,3.2c-0.1-0.1-0.3-0.3-0.4-0.5c2-1.9,3.2-4.5,3.2-7.4c0-2.9-1.2-5.5-3.2-7.4c2-1.9,3.2-4.5,3.2-7.4
					c0-2.9-1.2-5.5-3.2-7.4c2-1.9,3.2-4.5,3.2-7.4s-1.2-5.5-3.2-7.4c2-1.9,3.2-4.5,3.2-7.4c0-5.6-4.6-10.2-10.2-10.2
					s-10.2,4.6-10.2,10.2c0,2.9,1.2,5.5,3.2,7.4c-2,1.9-3.2,4.5-3.2,7.4s1.2,5.5,3.2,7.4c-2,1.9-3.2,4.5-3.2,7.4
					c0,2.9,1.2,5.5,3.2,7.4c-2,1.9-3.2,4.5-3.2,7.4c0,2.9,1.2,5.5,3.2,7.4c-2,1.9-3.2,4.5-3.2,7.4c0,5.6,4.6,10.2,10.2,10.2
					c2.9,0,5.5-1.2,7.4-3.2c1.9,2,4.5,3.2,7.4,3.2c2.9,0,5.5-1.2,7.4-3.2c1.9,2,4.5,3.2,7.4,3.2c2.9,0,5.5-1.2,7.4-3.2
					c1.9,2,4.5,3.2,7.4,3.2c5.6,0,10.2-4.6,10.2-10.2C223.1,158.2,218.6,153.7,213,153.7z M213,169c-2.5,0-4.5-1.7-5-4.1h-4.7
					c-0.5,2.3-2.6,4.1-5,4.1c-2.5,0-4.5-1.7-5-4.1h-4.7c-0.5,2.3-2.6,4.1-5,4.1c-2.5,0-4.5-1.7-5-4.1h-4.7c-0.5,2.3-2.6,4.1-5,4.1
					c-2.8,0-5.2-2.3-5.2-5.1c0-2.5,1.7-4.5,4.1-5v-4.7c-2.3-0.5-4.1-2.6-4.1-5c0-2.5,1.7-4.5,4.1-5v-4.7c-2.3-0.5-4.1-2.6-4.1-5
					c0-2.5,1.7-4.5,4.1-5v-4.7c-2.3-0.5-4.1-2.6-4.1-5s1.7-4.5,4.1-5v-4.7c-2.3-0.5-4.1-2.6-4.1-5c0-2.8,2.3-5.1,5.2-5.1
					c2.8,0,5.2,2.3,5.2,5.1c0,2.5-1.7,4.5-4.1,5v4.7c2.3,0.5,4.1,2.6,4.1,5s-1.7,4.5-4.1,5v4.7c2.3,0.5,4.1,2.6,4.1,5
					c0,2.5-1.7,4.5-4.1,5v4.7c2.3,0.5,4.1,2.6,4.1,5c0,2.5-1.7,4.5-4.1,5v4.7c2,0.4,3.5,2,3.9,3.9h4.7c0.5-2.3,2.6-4,5-4
					c2.5,0,4.5,1.7,5,4h4.7c0.5-2.3,2.6-4.1,5-4.1c2.5,0,4.5,1.7,5,4.1h4.7c0.5-2.3,2.6-4,5-4c2.8,0,5.2,2.3,5.2,5.1
					C218.1,166.7,215.8,169,213,169z"/>
			</g>
			<g>
				<path class="st0" d="M139,153.7c-2.9,0-5.5,1.2-7.4,3.2c-1.9-2-4.5-3.2-7.4-3.2c-2.9,0-5.5,1.2-7.4,3.2c-1.9-2-4.5-3.2-7.4-3.2
					c-2.9,0-5.5,1.2-7.4,3.2c-0.1-0.1-0.3-0.3-0.4-0.5c2-1.9,3.2-4.5,3.2-7.4c0-2.9-1.2-5.5-3.2-7.4c0.2-0.1,0.3-0.3,0.4-0.5
					c1.9,2,4.5,3.3,7.4,3.3c2.9,0,5.5-1.2,7.4-3.2c1.9,2,4.5,3.2,7.4,3.2c5.6,0,10.2-4.6,10.2-10.2c0-5.6-4.6-10.2-10.2-10.2
					c-2.9,0-5.5,1.2-7.4,3.2c-1.9-2-4.5-3.2-7.4-3.2c-2.9,0-5.6,1.3-7.4,3.3c-0.1-0.2-0.3-0.3-0.4-0.5c2-1.9,3.2-4.5,3.2-7.4
					s-1.2-5.5-3.2-7.4c0.1-0.1,0.3-0.3,0.4-0.4c1.9,2,4.5,3.2,7.4,3.2c2.9,0,5.5-1.2,7.4-3.2c1.9,2,4.5,3.2,7.4,3.2s5.5-1.2,7.4-3.2
					c1.9,2,4.5,3.2,7.4,3.2c5.6,0,10.2-4.6,10.2-10.2c0-5.6-4.6-10.2-10.2-10.2c-2.9,0-5.5,1.2-7.4,3.2c-1.9-2-4.5-3.2-7.4-3.2
					c-2.9,0-5.5,1.2-7.4,3.2c-1.9-2-4.5-3.2-7.4-3.2c-2.9,0-5.5,1.2-7.4,3.2c-1.9-2-4.5-3.2-7.4-3.2c-5.6,0-10.2,4.6-10.2,10.2
					c0,2.9,1.2,5.5,3.2,7.4c-2,1.9-3.2,4.5-3.2,7.4s1.2,5.5,3.2,7.4c-2,1.9-3.2,4.5-3.2,7.4c0,2.9,1.2,5.5,3.2,7.4
					c-2,1.9-3.2,4.5-3.2,7.4c0,2.9,1.2,5.5,3.2,7.4c-2,1.9-3.2,4.5-3.2,7.4c0,5.6,4.6,10.2,10.2,10.2c2.9,0,5.5-1.2,7.4-3.2
					c1.9,2,4.5,3.2,7.4,3.2c2.9,0,5.5-1.2,7.4-3.2c1.9,2,4.5,3.2,7.4,3.2s5.5-1.2,7.4-3.2c1.9,2,4.5,3.2,7.4,3.2
					c5.6,0,10.2-4.6,10.2-10.2C149.2,158.2,144.6,153.7,139,153.7z M139,169c-2.5,0-4.5-1.7-5-4.1h-4.7c-0.5,2.3-2.6,4.1-5,4.1
					c-2.5,0-4.5-1.7-5-4.1h-4.7c-0.5,2.3-2.6,4.1-5,4.1c-2.5,0-4.5-1.7-5-4.1h-4.7c-0.5,2.3-2.6,4.1-5,4.1c-2.8,0-5.1-2.3-5.1-5.1
					c0-2.5,1.7-4.5,4.1-5v-4.7c-2.3-0.5-4.1-2.6-4.1-5c0-2.5,1.7-4.5,4.1-5v-4.7c-2.3-0.5-4.1-2.6-4.1-5c0-2.5,1.7-4.5,4.1-5v-4.7
					c-2.3-0.5-4.1-2.6-4.1-5s1.7-4.5,4.1-5v-4.7c-2.3-0.5-4.1-2.6-4.1-5c0-2.8,2.3-5.1,5.1-5.1c2.5,0,4.5,1.7,5,4.1h4.7
					c0.5-2.3,2.6-4.1,5-4.1c2.5,0,4.5,1.7,5,4.1h4.7c0.5-2.3,2.6-4.1,5-4.1s4.5,1.7,5,4.1h4.7c0.5-2.3,2.6-4.1,5-4.1
					c2.8,0,5.2,2.3,5.2,5.1c0,2.8-2.3,5.2-5.2,5.2c-2.5,0-4.5-1.7-5-4.1h-4.7c-0.5,2.3-2.6,4-5,4c-2.5,0-4.5-1.7-5-4h-4.7
					c-0.5,2.3-2.6,4.1-5,4.1c-2.5,0-4.5-1.7-5-4.1h-4.7c-0.4,2-2,3.5-3.9,3.9v4.7c2.3,0.5,4.1,2.6,4.1,5s-1.7,4.5-4.1,5v4.7
					c1.9,0.4,3.4,2,3.9,3.9h4.8c0.5-2.3,2.6-4.1,5-4.1c2.5,0,4.5,1.7,5,4.1h4.7c0.5-2.3,2.6-4.1,5-4.1c2.8,0,5.2,2.3,5.2,5.1
					c0,2.8-2.3,5.1-5.2,5.1c-2.5,0-4.5-1.7-5-4.1h-4.7c-0.5,2.3-2.6,4.1-5,4.1c-2.5,0-4.5-1.7-5-4h-4.8c-0.4,1.9-1.9,3.5-3.9,3.9
					v4.7c2.3,0.5,4.1,2.6,4.1,5c0,2.5-1.7,4.5-4.1,5v4.7c2,0.4,3.5,2,3.9,3.9h4.7c0.5-2.3,2.6-4,5-4c2.5,0,4.5,1.7,5,4h4.7
					c0.5-2.3,2.6-4.1,5-4.1s4.5,1.7,5,4.1h4.7c0.5-2.3,2.6-4,5-4c2.8,0,5.2,2.3,5.2,5.1C144.2,166.7,141.9,169,139,169z"/>
			</g>
		</g>
		<g>
			<g>
				<path class="st0" d="M237.9,314c0-0.8,0.1-1.5,0.1-2.3c0-0.7,0-1.5-0.1-2.3c0.6-0.7,1.2-1.4,1.6-2.3c1.2-2.4,1.5-5.2,0.6-7.8
					c-1.2-3.6-4.1-6.1-7.7-6.8c-0.8-1.3-1.7-2.5-2.6-3.6c0.1-0.9,0.1-1.8,0-2.8c-0.4-2.7-1.9-5-4.1-6.6c-1.7-1.2-3.7-1.9-5.9-1.9
					c-1.5,0-2.9,0.3-4.3,0.9c-1.4-0.6-2.9-1-4.4-1.4c-0.5-0.8-1-1.6-1.7-2.2c-1.8-1.8-4.4-2.9-7.2-2.9c-2.8,0-5.4,1-7.2,2.8
					c-0.7,0.7-1.2,1.4-1.7,2.2c-1.5,0.4-2.9,0.9-4.4,1.4c-1.3-0.6-2.8-0.9-4.3-0.9c-2.2,0-4.2,0.7-5.9,1.9c-3,2.2-4.5,5.8-4.1,9.4
					c-0.9,1.2-1.8,2.4-2.6,3.6c-3.6,0.7-6.5,3.3-7.7,6.8c-0.8,2.6-0.6,5.3,0.6,7.8c0.4,0.8,1,1.6,1.6,2.3c0,0.8-0.1,1.5-0.1,2.3
					s0,1.5,0.1,2.3c-2.4,2.6-3.3,6.4-2.2,10c1.2,3.5,4.1,6.1,7.7,6.8c0.8,1.3,1.7,2.5,2.6,3.6c-0.1,0.9-0.1,1.8,0,2.8
					c0.4,2.7,1.9,5,4.1,6.6c1.7,1.3,3.8,1.9,6,1.9c1.5,0,2.9-0.3,4.2-0.9c1.4,0.6,2.8,1,4.3,1.4c0.5,0.8,1,1.6,1.7,2.2
					c1.9,1.9,4.5,3,7.2,3s5.3-1.1,7.2-3c0.7-0.7,1.2-1.4,1.7-2.2c1.5-0.4,2.9-0.8,4.3-1.4c1.3,0.6,2.8,0.9,4.2,0.9
					c2.2,0,4.2-0.7,6-1.9c2.2-1.6,3.6-4,4.1-6.6c0.1-0.9,0.2-1.9,0-2.8c0.9-1.1,1.8-2.4,2.6-3.6c3.6-0.7,6.5-3.3,7.7-6.8
					C241.2,320.5,240.3,316.7,237.9,314z M235.3,322.5c-0.7,2.1-2.7,3.6-4.9,3.6l0,0c-0.3,0-0.6-0.1-0.9-0.1
					c-1.4,2.7-3.2,5.2-5.3,7.3c0.5,1,0.8,2.1,0.6,3.3c-0.2,1.4-0.9,2.6-2.1,3.4c-0.9,0.6-1.9,1-3,1c-1.4,0-2.8-0.6-3.7-1.7
					c-2.7,1.3-5.5,2.3-8.6,2.8c-0.1,1.1-0.6,2.2-1.5,3c-1,1-2.3,1.5-3.6,1.5c-1.4,0-2.7-0.6-3.6-1.5c-0.8-0.8-1.3-1.9-1.4-3
					c-3-0.5-5.9-1.5-8.6-2.8c-1,1-2.3,1.7-3.7,1.7c-1.1,0-2.1-0.3-3-1c-1.1-0.8-1.8-2-2.1-3.4c-0.2-1.1,0-2.3,0.6-3.3
					c-2.1-2.2-3.9-4.6-5.3-7.3c-0.3,0.1-0.6,0.1-0.9,0.1l0,0c-2.2,0-4.2-1.4-4.9-3.6c-0.8-2.5,0.4-5.1,2.7-6.2
					c-0.2-1.5-0.4-3-0.4-4.5c0-1.5,0.1-3,0.4-4.5c-1-0.5-1.9-1.3-2.4-2.3c-0.6-1.2-0.7-2.6-0.3-3.9c0.7-2.1,2.7-3.6,4.9-3.6
					c0.3,0,0.6,0.1,0.9,0.1c1.4-2.7,3.2-5.2,5.3-7.3c-1.2-2.2-0.7-5.1,1.5-6.6c2-1.5,5-1.1,6.8,0.7c2.7-1.3,5.5-2.3,8.6-2.8
					c0.1-1.1,0.6-2.2,1.4-3c1.8-1.8,5.5-1.8,7.3,0c0.8,0.8,1.3,1.9,1.5,3c3,0.5,5.9,1.5,8.6,2.8c1.7-1.8,4.7-2.1,6.8-0.7
					c1.1,0.8,1.8,2,2.1,3.4c0.2,1.1,0,2.3-0.6,3.3c2.1,2.2,3.9,4.6,5.3,7.3c0.3-0.1,0.6-0.1,0.9-0.1c2.2,0,4.2,1.4,4.9,3.6
					c0.4,1.3,0.3,2.7-0.3,3.9c-0.5,1-1.4,1.8-2.4,2.3c0.2,1.5,0.4,3,0.4,4.5c0,1.5-0.1,3-0.4,4.5C234.9,317.3,236.1,320,235.3,322.5
					z M230.4,307.8c-2.2,0-4.2-1.4-4.9-3.6c-0.4-1.3-0.3-2.7,0.3-3.9c0.4-0.8,0.9-1.4,1.6-1.8c-1.3-2.4-2.9-4.6-4.7-6.5
					c-0.9,0.6-1.9,1-3,1c-1.1,0-2.1-0.3-3-1c-1.1-0.8-1.8-2-2.1-3.4c-0.1-0.8,0-1.6,0.2-2.4c-2.4-1.2-4.9-2-7.6-2.5
					c-0.2,0.8-0.7,1.5-1.2,2.1c-1,1-2.3,1.5-3.6,1.5c-1.4,0-2.7-0.6-3.6-1.5c-0.6-0.6-1-1.3-1.2-2.1c-2.7,0.5-5.3,1.3-7.6,2.5
					c0.3,0.8,0.3,1.6,0.2,2.4c-0.2,1.4-0.9,2.5-2.1,3.4c-0.9,0.7-1.9,1-3,1c-1.1,0-2.2-0.4-3-1c-1.9,1.9-3.5,4.1-4.7,6.5
					c0.7,0.5,1.2,1.1,1.6,1.8c0.6,1.2,0.7,2.6,0.3,3.9c-0.7,2.1-2.7,3.6-4.9,3.6c0,0,0,0,0,0c-0.2,1.3-0.3,2.6-0.3,4s0.1,2.7,0.3,4
					c0,0,0,0,0,0c2.2,0,4.2,1.4,4.9,3.6c0.7,2.2-0.1,4.5-1.9,5.8c1.3,2.4,2.9,4.6,4.7,6.5c1.8-1.2,4.3-1.3,6.1,0
					c1.1,0.8,1.8,2,2.1,3.4c0.1,0.8,0,1.6-0.2,2.4c2.4,1.2,4.9,2,7.6,2.5c0.2-0.8,0.7-1.5,1.2-2.1c1.8-1.8,5.5-1.8,7.3,0
					c0.6,0.6,1,1.3,1.2,2.1c2.7-0.5,5.3-1.3,7.6-2.5c-0.3-0.8-0.3-1.6-0.2-2.4c0.2-1.4,0.9-2.6,2.1-3.4c1.8-1.3,4.3-1.2,6.1,0
					c1.9-1.9,3.5-4.1,4.7-6.5c-1.8-1.3-2.6-3.6-1.9-5.8c0.7-2.1,2.7-3.6,4.9-3.6c0,0,0,0,0,0c0.2-1.3,0.3-2.6,0.3-4
					C230.8,310.4,230.6,309.1,230.4,307.8C230.4,307.8,230.4,307.8,230.4,307.8z M225.7,311.9c-2.3,1.2-4.2,3.3-5,5.9
					c-0.8,2.6-0.6,5.3,0.6,7.7c-0.1,0.1-0.1,0.2-0.2,0.3c-0.5-0.1-1-0.1-1.5-0.1c-2.2,0-4.2,0.7-5.9,1.9c-2.2,1.6-3.6,3.9-4.1,6.5
					c-0.1,0-0.2,0.1-0.2,0.1c-1.8-1.8-4.4-2.8-7.1-2.8c-2.7,0-5.3,1-7.1,2.8c-0.1,0-0.2,0-0.2-0.1c-0.4-2.6-1.9-5-4-6.5
					c-1.7-1.2-3.7-1.9-5.9-1.9c-0.5,0-1,0-1.5,0.1c-0.1-0.1-0.1-0.2-0.2-0.3c1.2-2.3,1.4-5.1,0.6-7.7c-0.8-2.6-2.7-4.7-5-5.9v-0.2
					c2.3-1.2,4.1-3.3,5-5.9c0.8-2.5,0.6-5.3-0.6-7.7c0-0.1,0.1-0.1,0.1-0.2c0.5,0.1,1,0.1,1.5,0.1c2.2,0,4.2-0.7,6-1.9
					c2.2-1.6,3.6-3.9,4-6.5c0.1,0,0.2,0,0.2-0.1c1.9,1.9,4.5,2.9,7.1,2.9c2.6,0,5.2-1.1,7.1-2.9c0.1,0,0.2,0,0.2,0.1
					c0.4,2.6,1.9,5,4.1,6.5c1.7,1.3,3.8,1.9,6,1.9c0.5,0,1,0,1.5-0.1c0,0.1,0.1,0.1,0.1,0.2c-1.2,2.4-1.4,5.1-0.6,7.7
					c0.8,2.6,2.7,4.7,5,5.9L225.7,311.9L225.7,311.9z"/>
			</g>
			<g>
				<path class="st0" d="M323.1,331.2c-1.6,0-3.1,0.4-4.5,1.1l-0.3-0.1c-0.9-4.7-5-8.3-10-8.3c-1.6,0-3.1,0.4-4.5,1.1l-0.3-0.1
					c-0.4-2.1-1.5-4.1-3-5.6c0.1-0.1,0.3-0.3,0.4-0.4c0.1,0.1,0.1,0.1,0.2,0.2c1.9,1.9,4.5,3,7.2,3c2.7,0,5.3-1.1,7.2-3
					c0.7-0.7,1.2-1.4,1.7-2.3c1.3-0.5,2.5-1.1,3.7-1.8c0.6,0.1,1.2,0.2,1.8,0.2c3.5,0,6.7-1.8,8.6-4.7c1.5-2.3,1.9-5,1.4-7.7
					c-0.3-1.3-0.8-2.6-1.6-3.6c0.1-0.7,0.1-1.4,0.1-2.1c0-0.7,0-1.4-0.1-2.1c2.3-3.3,2.5-7.7,0.2-11.3c-1.9-2.9-5.1-4.7-8.6-4.7
					c-0.6,0-1.2,0-1.8,0.2c-1.2-0.7-2.4-1.3-3.7-1.8c-0.5-0.8-1-1.6-1.7-2.3c-1.8-1.8-4.4-2.8-7.2-2.8c-2.8,0-5.4,1-7.2,2.9
					c-0.1,0.1-0.1,0.1-0.2,0.2c-1.9-2-4.5-3.2-7.4-3.2c-2.9,0-5.5,1.2-7.4,3.2c-1.9-2-4.5-3.2-7.4-3.2s-5.5,1.2-7.4,3.2
					c-1.9-2-4.5-3.2-7.4-3.2c-5.6,0-10.2,4.6-10.2,10.2c0,2.9,1.2,5.5,3.2,7.4c-2,1.9-3.2,4.5-3.2,7.4s1.2,5.5,3.2,7.4
					c-2,1.9-3.2,4.5-3.2,7.4c0,2.9,1.2,5.5,3.2,7.4c-2,1.9-3.2,4.5-3.2,7.4s1.2,5.5,3.2,7.4c-2,1.9-3.2,4.5-3.2,7.4
					c0,5.6,4.6,10.2,10.2,10.2c5.6,0,10.2-4.6,10.2-10.2c0-2.9-1.2-5.5-3.2-7.4c2-1.9,3.2-4.5,3.2-7.4c0-2.9-1.2-5.5-3.2-7.4
					c2-1.9,3.2-4.5,3.2-7.4c0-2.9-1.2-5.5-3.2-7.4c2-1.9,3.2-4.5,3.2-7.4s-1.2-5.5-3.2-7.4c0.2-0.1,0.3-0.3,0.4-0.4
					c1.9,2,4.5,3.2,7.4,3.2c2.9,0,5.5-1.2,7.4-3.2c1.9,2,4.5,3.2,7.4,3.2c2.9,0,5.5-1.2,7.4-3.2c0.1,0.1,0.1,0.2,0.2,0.2
					c1.9,1.9,4.5,3,7.2,3c1.6,0,3.1-0.4,4.5-1.1c0.3,1.1,0.7,2.2,1.4,3.2c0.6,1,1.4,1.8,2.2,2.5c-0.9,0.7-1.6,1.5-2.2,2.5l-0.3,0.5
					c-0.2,0.4-0.4,0.8-0.5,1.2c-0.2,0.5-0.4,1-0.5,1.6c-1.4-0.7-2.9-1-4.5-1c-2.8,0-5.4,1-7.2,2.8c-0.1,0.1-0.1,0.1-0.2,0.2
					c-1.9-2-4.5-3.2-7.4-3.2c-5.6,0-10.2,4.6-10.2,10.2c0,2.9,1.2,5.5,3.2,7.4c-2,1.9-3.2,4.5-3.2,7.4c0,5.6,4.6,10.2,10.2,10.2
					c1.6,0,3.1-0.4,4.5-1.1l0.3,0.1c0.9,4.7,5,8.3,10,8.3c1.6,0,3.1-0.4,4.5-1.1l0.3,0.1c0.9,4.7,5,8.3,10,8.3
					c5.6,0,10.2-4.6,10.2-10.2C333.3,335.7,328.7,331.2,323.1,331.2z M323.1,346.5c-2.8,0-5.1-2.3-5.1-5.2c0-0.4,0.1-0.8,0.2-1.3
					l-5.8-2.9c-0.9,1.2-2.4,1.9-4,1.9c-2.8,0-5.2-2.3-5.2-5.2c0-0.4,0.1-0.9,0.2-1.3l-5.8-2.9c-0.9,1.2-2.4,1.9-4,1.9
					c-2.8,0-5.2-2.3-5.2-5.2c0-2.5,1.7-4.5,4.1-5v-4.7c-2.3-0.5-4.1-2.6-4.1-5c0-2.8,2.3-5.2,5.2-5.2c2.5,0,4.5,1.7,5,4.1h4.7
					c0.2-1,0.7-1.8,1.4-2.5c1.8-1.8,5.5-1.8,7.3,0c0.6,0.6,1,1.4,1.3,2.2c2-0.4,3.7-1.3,5.3-2.5c-0.4-0.5-0.6-1.2-0.8-1.8
					c-0.3-1.1-0.1-2.3,0.4-3.4l0,0l0.3-0.5c0.9-1.5,2.6-2.4,4.3-2.4c0.3,0,0.6,0.1,0.9,0.1c0.2-0.9,0.3-1.9,0.3-2.9s-0.1-2-0.3-2.9
					c-0.3,0-0.6,0.1-0.9,0.1c-1.8,0-3.4-0.9-4.3-2.4c-0.7-1.2-1-2.5-0.7-3.9c0.1-0.7,0.4-1.3,0.8-1.8c-1.6-1.2-3.3-2-5.3-2.5
					c-0.2,0.8-0.7,1.6-1.3,2.2c-1,1-2.3,1.5-3.6,1.5s-2.7-0.6-3.6-1.5c-0.7-0.7-1.2-1.6-1.4-2.5h-4.7c-0.5,2.3-2.6,4.1-5,4.1
					s-4.5-1.7-5-4.1h-4.7c-0.5,2.3-2.6,4.1-5,4.1c-2.5,0-4.5-1.7-5-4.1H269c-0.4,2-2,3.5-3.9,3.9v4.7c2.3,0.5,4.1,2.6,4.1,5
					c0,2.5-1.7,4.5-4.1,5v4.7c2.3,0.5,4.1,2.6,4.1,5c0,2.5-1.7,4.5-4.1,5v4.7c2.3,0.5,4.1,2.6,4.1,5c0,2.5-1.7,4.5-4.1,5v4.7
					c2.3,0.5,4.1,2.6,4.1,5c0,2.8-2.3,5.2-5.2,5.2s-5.2-2.3-5.2-5.2c0-2.5,1.7-4.5,4.1-5v-4.7c-2.3-0.5-4.1-2.6-4.1-5
					c0-2.5,1.7-4.5,4.1-5v-4.7c-2.3-0.5-4.1-2.6-4.1-5c0-2.5,1.7-4.5,4.1-5V302c-2.3-0.5-4.1-2.6-4.1-5s1.7-4.5,4.1-5v-4.7
					c-2.3-0.5-4.1-2.6-4.1-5c0-2.8,2.3-5.2,5.2-5.2c2.5,0,4.5,1.7,5,4.1h4.7c0.5-2.3,2.6-4.1,5-4.1s4.5,1.7,5,4.1h4.7
					c0.5-2.3,2.6-4.1,5-4.1s4.5,1.7,5,4.1h4.7c0.2-0.9,0.7-1.8,1.4-2.5c1.8-1.8,5.4-1.8,7.3,0c0.8,0.8,1.3,1.8,1.4,2.9
					c2.5,0.5,4.8,1.7,6.8,3.2c0.8-0.5,1.7-0.7,2.6-0.7c1.8,0,3.4,0.9,4.3,2.4c1.5,2.3,0.8,5.4-1.4,7c0.3,1.2,0.5,2.5,0.5,3.7
					c0,1.3-0.2,2.5-0.5,3.7c1.1,0.7,1.8,1.8,2.1,3.1c0.3,1.3,0,2.7-0.7,3.9c-0.9,1.5-2.6,2.4-4.3,2.4c-0.9,0-1.8-0.3-2.6-0.7
					c-1.9,1.6-4.2,2.7-6.8,3.2c-0.2,1.1-0.7,2.1-1.4,2.8c-1,1-2.3,1.5-3.6,1.5s-2.7-0.6-3.6-1.5c-0.7-0.7-1.2-1.6-1.4-2.5h-4.7
					c-0.4,1.9-2,3.5-3.9,3.9v4.7c2.3,0.5,4.1,2.6,4.1,5c0,0.4-0.1,0.8-0.2,1.3l5.8,2.9c0.9-1.2,2.4-1.9,4-1.9c2.8,0,5.1,2.3,5.1,5.2
					c0,0.4-0.1,0.8-0.2,1.3l5.8,2.9c0.9-1.2,2.4-1.9,4-1.9c2.8,0,5.2,2.3,5.2,5.1S325.9,346.5,323.1,346.5z"/>
			</g>
			<g>
				<path class="st0" d="M153.8,272c-2.9,0-5.5,1.2-7.4,3.2c-1.9-2-4.5-3.2-7.4-3.2s-5.5,1.2-7.4,3.2c-1.9-2-4.5-3.2-7.4-3.2
					c-2.9,0-5.5,1.2-7.4,3.2c-1.9-2-4.5-3.2-7.4-3.2c-2.9,0-5.5,1.2-7.4,3.2c-1.9-2-4.5-3.2-7.4-3.2c-5.6,0-10.2,4.6-10.2,10.2
					s4.6,10.2,10.2,10.2c2.9,0,5.5-1.2,7.4-3.2c1.9,2,4.5,3.2,7.4,3.2c2.9,0,5.5-1.2,7.4-3.2c0.1,0.1,0.3,0.3,0.5,0.4
					c-2,1.8-3.3,4.5-3.3,7.4c0,2.9,1.2,5.5,3.2,7.4c-2,1.9-3.2,4.5-3.2,7.4c0,2.9,1.2,5.5,3.2,7.4c-2,1.9-3.2,4.5-3.2,7.4
					s1.2,5.5,3.2,7.4c-2,1.9-3.2,4.5-3.2,7.4c0,5.6,4.6,10.2,10.2,10.2c5.6,0,10.2-4.6,10.2-10.2c0-2.9-1.2-5.5-3.2-7.4
					c2-1.9,3.2-4.5,3.2-7.4c0-2.9-1.2-5.5-3.2-7.4c2-1.9,3.2-4.5,3.2-7.4c0-2.9-1.2-5.5-3.2-7.4c2-1.9,3.2-4.5,3.2-7.4
					c0-2.9-1.3-5.6-3.3-7.4c0.2-0.1,0.3-0.3,0.5-0.4c1.9,2,4.5,3.2,7.4,3.2c2.9,0,5.5-1.2,7.4-3.2c1.9,2,4.5,3.2,7.4,3.2
					c5.6,0,10.2-4.6,10.2-10.2C164,276.6,159.4,272,153.8,272z M153.8,287.3c-2.5,0-4.5-1.7-5-4.1h-4.7c-0.5,2.3-2.6,4.1-5,4.1
					c-2.5,0-4.5-1.7-5-4.1h-4.7c-0.4,1.9-2,3.4-3.9,3.9v4.8c2.3,0.5,4.1,2.6,4.1,5c0,2.5-1.7,4.5-4.1,5v4.7c2.3,0.5,4.1,2.6,4.1,5
					c0,2.5-1.7,4.5-4.1,5v4.7c2.3,0.5,4.1,2.6,4.1,5s-1.7,4.5-4.1,5v4.7c2.3,0.5,4.1,2.6,4.1,5c0,2.8-2.3,5.2-5.1,5.2
					c-2.8,0-5.2-2.3-5.2-5.2c0-2.5,1.7-4.5,4.1-5v-4.7c-2.3-0.5-4.1-2.6-4.1-5c0-2.5,1.7-4.5,4.1-5v-4.7c-2.3-0.5-4.1-2.6-4.1-5
					c0-2.5,1.7-4.5,4.1-5V302c-2.3-0.5-4.1-2.6-4.1-5c0-2.5,1.7-4.5,4.1-5v-4.8c-1.9-0.4-3.5-1.9-3.9-3.9h-4.7
					c-0.5,2.3-2.6,4.1-5,4.1s-4.5-1.7-5-4.1h-4.7c-0.5,2.3-2.6,4.1-5,4.1c-2.8,0-5.2-2.3-5.2-5.2s2.3-5.2,5.2-5.2
					c2.5,0,4.5,1.7,5,4.1h4.7c0.5-2.3,2.6-4.1,5-4.1s4.5,1.7,5,4.1h4.7c0.5-2.3,2.6-4.1,5-4.1s4.5,1.7,5,4.1h4.7
					c0.5-2.3,2.6-4.1,5-4.1c2.5,0,4.5,1.7,5,4.1h4.7c0.5-2.3,2.6-4.1,5-4.1c2.8,0,5.2,2.3,5.2,5.2C159,285,156.7,287.3,153.8,287.3z
					"/>
			</g>
		</g>
		<g>
			<g>
				<path class="st0" d="M292.4,228.2c-1.8,0-3.5-1-4.5-2.6c-1.2-2.1-0.8-4.8,1-6.4l-3.5-6.1c-0.5,0.1-1,0.3-1.5,0.3
					c-1.8,0-3.5-1-4.5-2.6c-1.2-2.1-0.8-4.8,1-6.4l-3.5-6.1c-0.5,0.2-1,0.3-1.6,0.3c-0.5,0-1.1-0.1-1.6-0.3l-3.5,6.1
					c1.7,1.6,2.2,4.2,1,6.4c-0.9,1.6-2.6,2.6-4.5,2.6l0,0c-0.5,0-1-0.1-1.5-0.3l-3.5,6.1c1.7,1.6,2.2,4.2,1,6.4
					c-0.9,1.6-2.6,2.6-4.5,2.6c-0.5,0-1-0.1-1.5-0.3l-3.5,6.1c0.8,0.7,1.3,1.7,1.5,2.7h8.2c0.5-2.3,2.6-4.1,5-4.1
					c2.5,0,4.5,1.7,5,4.1h4.7c0.5-2.3,2.6-4.1,5-4.1c2.5,0,4.5,1.7,5,4.1h8.2c0.2-1,0.7-2,1.5-2.7l-3.5-6.1
					C293.5,228.1,293,228.2,292.4,228.2z M282.7,227.6c-2.9,0-5.5,1.2-7.4,3.2c-1.9-2-4.5-3.2-7.4-3.2c-0.2,0-0.5,0-0.7,0.1
					c1.4-2.7,1.5-5.9,0.4-8.6l0.4-0.7c3-0.4,5.7-2,7.3-4.6c1.6,2.5,4.3,4.2,7.3,4.6l0.4,0.7c-1.1,2.7-1,5.9,0.4,8.6
					C283.2,227.7,283,227.6,282.7,227.6z M310.7,242.5l-0.4-0.7c0.2-0.4,0.3-0.9,0.5-1.3c0.7-2.6,0.3-5.4-1-7.7
					c-1.6-2.8-4.4-4.6-7.6-5l-0.4-0.7c0.2-0.4,0.3-0.9,0.5-1.3c0.7-2.6,0.3-5.4-1-7.7c-1.6-2.8-4.4-4.6-7.6-5l-0.4-0.7
					c0.2-0.4,0.3-0.9,0.5-1.3c0.7-2.6,0.3-5.4-1-7.7c-1.6-2.8-4.4-4.6-7.6-5l-0.4-0.7c0.5-1.2,0.8-2.6,0.8-4
					c0-5.6-4.6-10.2-10.2-10.2c-5.6,0-10.2,4.6-10.2,10.2c0,1.4,0.3,2.7,0.8,4l-0.4,0.7c-3.1,0.4-6,2.2-7.6,5
					c-1.4,2.4-1.7,5.1-1,7.7c0.1,0.5,0.3,0.9,0.5,1.3l-0.4,0.7c-3.1,0.4-6,2.2-7.6,5c-1.4,2.4-1.7,5.1-1,7.7
					c0.1,0.5,0.3,0.9,0.5,1.3l-0.4,0.7c-3.1,0.4-6,2.2-7.6,5c-1.4,2.4-1.7,5.1-1,7.7c0.1,0.5,0.3,0.9,0.5,1.3l-0.4,0.7
					c-3.1,0.4-6,2.2-7.6,5c-2.8,4.9-1.1,11.1,3.7,13.9c1.5,0.9,3.3,1.4,5.1,1.4c3.6,0,7-1.9,8.8-5.1c1.4-2.4,1.7-5.1,1-7.7
					c-0.1-0.5-0.3-0.9-0.5-1.3l0.4-0.7c3.1-0.4,6-2.2,7.6-5c0.1-0.2,0.2-0.5,0.3-0.7c1.7,3.4,5.1,5.8,9.1,5.8c2.9,0,5.5-1.2,7.4-3.2
					c1.9,2,4.5,3.2,7.4,3.2c4,0,7.5-2.4,9.1-5.8c0.1,0.2,0.2,0.5,0.3,0.7c1.6,2.8,4.4,4.6,7.6,5l0.4,0.7c-0.5,1.2-0.8,2.6-0.8,4
					c0,5.6,4.6,10.2,10.2,10.2c2.7,0,5.3-1.1,7.2-3c1.9-1.9,3-4.5,3-7.2C319.7,247.4,315.8,243.1,310.7,242.5z M309.5,257.7
					L309.5,257.7c-2.8,0-5.1-2.3-5.1-5.2c0-1.4,0.5-2.7,1.5-3.6c0,0,0.1-0.1,0.2-0.1l-3.5-6.1c-0.5,0.2-1,0.3-1.5,0.3
					c-1.8,0-3.5-1-4.5-2.6c-0.3-0.5-0.4-1-0.5-1.5h-8.2c-0.5,2.3-2.6,4-5,4s-4.5-1.7-5-4H273c-0.5,2.3-2.6,4-5,4c-2.5,0-4.5-1.7-5-4
					h-8.2c-0.1,0.5-0.3,1-0.5,1.5c-0.9,1.6-2.6,2.6-4.5,2.6c-0.5,0-1-0.1-1.5-0.3l-3.5,6.1c0.7,0.7,1.2,1.5,1.5,2.5
					c0.4,1.3,0.2,2.7-0.5,3.9c-0.9,1.6-2.6,2.6-4.5,2.6c-0.9,0-1.8-0.2-2.6-0.7c-2.5-1.4-3.3-4.6-1.9-7c0.9-1.6,2.6-2.6,4.5-2.6
					c0.5,0,1,0.1,1.5,0.3l3.5-6.1c-0.7-0.7-1.3-1.5-1.5-2.5c-0.4-1.3-0.2-2.7,0.5-3.9c0.9-1.6,2.6-2.6,4.5-2.6c0.5,0,1,0.1,1.5,0.3
					l3.5-6.1c-0.7-0.7-1.3-1.5-1.5-2.5c-0.4-1.3-0.2-2.7,0.5-3.9c0.9-1.6,2.6-2.6,4.5-2.6c0.5,0,1,0.1,1.5,0.3l3.5-6.1
					c-0.7-0.7-1.3-1.5-1.5-2.5c-0.4-1.3-0.2-2.7,0.5-3.9c0.9-1.6,2.6-2.6,4.5-2.6c0.5,0,1,0.1,1.5,0.3l3.5-6.1
					c-1-0.9-1.7-2.3-1.7-3.8c0-2.8,2.3-5.2,5.2-5.2s5.2,2.3,5.2,5.2c0,1.5-0.7,2.8-1.7,3.8l3.5,6.1c0.5-0.2,1-0.3,1.5-0.3
					c1.8,0,3.5,1,4.5,2.6c0.7,1.2,0.9,2.6,0.5,3.9c-0.3,1-0.8,1.8-1.5,2.5l3.5,6.1c0.5-0.2,1-0.3,1.6-0.3c1.8,0,3.5,1,4.5,2.6
					c0.7,1.2,0.9,2.6,0.5,3.9c-0.3,1-0.8,1.8-1.5,2.5l3.5,6.1c0.5-0.2,1-0.3,1.5-0.3c1.8,0,3.5,1,4.5,2.6c0.7,1.2,0.9,2.6,0.5,3.9
					c-0.3,1-0.8,1.8-1.5,2.5l3.5,6.1c0.5-0.2,1-0.3,1.6-0.3c2.8,0,5.1,2.3,5.1,5.1C314.7,255.4,312.3,257.7,309.5,257.7z"/>
			</g>
			<path class="st0" d="M335.4,114.4c-1.8-3.1-5.2-5.1-8.8-5.1c-1.8,0-3.5,0.5-5.1,1.4c-1.2,0.7-2.2,1.6-3,2.7h-0.8
				c-1.9-2.5-4.9-4.1-8.1-4.1c-3.2,0-6.2,1.6-8.1,4.1h-0.9c-1.8-2.4-4.5-3.9-7.6-4c1.2-2.3,1.4-4.8,0.8-7.3
				c-0.1-0.5-0.3-0.9-0.5-1.3l0.4-0.7c3.1-0.4,6-2.2,7.6-5c1.4-2.4,1.7-5.1,1-7.7c-0.1-0.5-0.3-0.9-0.5-1.4l0.4-0.7
				c5-0.6,8.9-4.9,8.9-10.1c0-2.7-1-5.3-3-7.2c-1.9-1.9-4.5-3-7.2-3c-5.6,0-10.2,4.6-10.2,10.2c0,1.4,0.3,2.7,0.8,4l-0.4,0.7
				c-3.1,0.4-6,2.2-7.6,5c-1.6,2.8-1.7,6.2-0.5,9l-0.4,0.7c-3,0.4-5.7,2-7.3,4.6c-1.6-2.5-4.3-4.2-7.3-4.6l-0.4-0.7
				c1.2-2.9,1.1-6.2-0.5-9c-1.6-2.8-4.4-4.6-7.6-5l-0.4-0.7c0.9-2.1,1.1-4.4,0.5-6.6c-0.7-2.6-2.4-4.8-4.7-6.2
				c-1.5-0.9-3.3-1.4-5.1-1.4c-3.6,0-7,1.9-8.8,5.1c-2.8,4.9-1.1,11.1,3.7,13.9c1.2,0.7,2.5,1.1,3.8,1.3l0.4,0.7
				c-0.2,0.4-0.3,0.9-0.5,1.3c-0.7,2.6-0.3,5.4,1,7.7c1.6,2.8,4.4,4.6,7.6,5l0.4,0.7c-1.1,2.7-1.1,5.9,0.3,8.6c-3,0.2-5.8,1.7-7.6,4
				h-0.9c-1.9-2.5-4.9-4.1-8.1-4.1s-6.2,1.6-8.1,4.1h-0.9c-1.9-2.5-4.9-4.1-8.1-4.1c-1.8,0-3.5,0.5-5.1,1.4c-4.9,2.8-6.5,9-3.7,13.9
				c1.8,3.1,5.2,5.1,8.8,5.1c1.8,0,3.5-0.5,5.1-1.4c1.2-0.7,2.2-1.6,3-2.7h0.8c1.9,2.5,4.9,4.1,8.1,4.1c3.2,0,6.2-1.6,8.1-4.1h0.9
				c1.8,2.4,4.5,3.9,7.6,4c-1.2,2.2-1.4,4.8-0.8,7.3c0.1,0.5,0.3,0.9,0.5,1.3l-0.4,0.7c-3.1,0.4-6,2.2-7.6,5c-1.6,2.8-1.7,6.2-0.5,9
				l-0.5,0.8c-2.3,0.3-4.3,1.2-5.9,2.8c-1.9,1.9-3,4.5-3,7.2c0,1.4,0.3,2.7,0.8,4l-0.4,0.7c-3.1,0.4-6,2.2-7.6,5
				c-1.4,2.4-1.7,5.1-1,7.7c0.1,0.5,0.3,0.9,0.5,1.4l-0.4,0.7c-5,0.6-8.9,4.9-8.9,10.1c0,1.4,0.3,2.7,0.8,4l-0.4,0.7
				c-3.1,0.4-6,2.2-7.6,5c-1.6,2.8-1.7,6.2-0.5,9l-0.4,0.7c-3.1,0.4-6,2.2-7.6,5c-1.6,2.8-1.7,6.2-0.5,9l-0.4,0.7
				c-3,0.4-5.7,2-7.3,4.6c-1.6-2.5-4.3-4.2-7.3-4.6l-0.4-0.7c1.2-2.9,1.1-6.2-0.5-9c-1.6-2.8-4.4-4.6-7.6-5l-0.4-0.7
				c1.2-2.9,1.1-6.2-0.5-9c-1.6-2.8-4.4-4.6-7.6-5l-0.4-0.7c0.5-1.2,0.8-2.6,0.8-4c0-2.7-1.1-5.3-3-7.2c-1.9-1.9-4.5-2.9-7.2-2.9
				c-2.7,0-5.3,1.1-7.2,2.9c-1.9,1.9-3,4.5-3,7.2c0,5.2,3.9,9.5,8.9,10.1l0.4,0.8c-1.2,2.9-1.1,6.2,0.5,9c1.6,2.8,4.4,4.6,7.6,5
				l0.4,0.7c-0.2,0.4-0.3,0.9-0.5,1.3c-0.7,2.6-0.3,5.4,1,7.7c1.6,2.8,4.4,4.6,7.6,5l0.4,0.7c-1.2,2.9-1.1,6.2,0.5,9
				c1.6,2.8,4.4,4.6,7.6,5l0.4,0.7c-0.5,1.2-0.8,2.6-0.8,4c0,5.6,4.6,10.2,10.2,10.2s10.2-4.6,10.2-10.2c0-1.4-0.3-2.7-0.8-4
				l0.4-0.7c3.1-0.4,6-2.2,7.6-5c1.6-2.8,1.7-6.2,0.5-9l0.4-0.8c3.1-0.4,6-2.2,7.6-5c1.4-2.4,1.7-5.1,1-7.7
				c-0.1-0.5-0.3-0.9-0.5-1.3l0.4-0.7c3.1-0.4,6-2.2,7.6-5c1.6-2.8,1.7-6.2,0.5-9l0.4-0.7c2.3-0.3,4.3-1.3,6-2.9
				c1.9-1.9,3-4.5,3-7.2c0-1.4-0.3-2.7-0.8-4l0.4-0.7c3.1-0.4,6-2.2,7.6-5c1.4-2.4,1.7-5.1,1-7.7c-0.1-0.5-0.3-0.9-0.5-1.3l0.4-0.7
				c5-0.6,8.9-4.9,8.9-10.1c0-1.4-0.3-2.7-0.8-4l0.4-0.7c3.1-0.4,6-2.2,7.6-5c1.6-2.8,1.7-6.2,0.5-9l0.4-0.8c3-0.4,5.7-2,7.3-4.6
				c1.6,2.5,4.3,4.2,7.3,4.6l0.4,0.7c-1.2,2.9-1.1,6.2,0.5,9c1.6,2.8,4.4,4.6,7.6,5l0.4,0.7c-0.9,2.1-1.1,4.4-0.5,6.6
				c0.7,2.6,2.4,4.8,4.7,6.2c1.5,0.9,3.3,1.4,5.1,1.4c3.6,0,7-1.9,8.8-5.1c2.8-4.9,1.1-11.1-3.7-13.9c-1.2-0.7-2.5-1.1-3.9-1.3
				l-0.4-0.7c1.2-2.9,1.1-6.2-0.5-9c-1.6-2.8-4.4-4.6-7.6-5l-0.4-0.7c0.2-0.4,0.3-0.9,0.5-1.3c0.7-2.5,0.4-5-0.8-7.3
				c3-0.2,5.8-1.7,7.6-4h0.9c0.3,0.4,0.6,0.7,0.9,1.1c1.9,1.9,4.5,3,7.2,3c3.2,0,6.2-1.6,8.1-4.1h0.9c1.9,2.5,4.9,4.1,8.1,4.1
				c1.8,0,3.5-0.5,5.1-1.4c2.4-1.4,4-3.5,4.7-6.2C337.1,119.5,336.7,116.8,335.4,114.4z M329.2,124c-0.8,0.5-1.7,0.7-2.6,0.7
				c-1.8,0-3.6-1-4.5-2.6c-0.3-0.5-0.4-1-0.5-1.5h-7c-0.5,2.3-2.6,4.1-5,4.1c-1.4,0-2.7-0.5-3.6-1.5c-0.7-0.7-1.2-1.6-1.4-2.5h-7
				c-0.5,2.3-2.6,4.1-5,4.1c-2.5,0-4.5-1.7-5-4.1h-7c-0.1,0.5-0.3,1-0.5,1.5c-0.3,0.5-0.6,0.9-1,1.2l3.5,6.1c0.5-0.1,1-0.3,1.5-0.3
				c1.8,0,3.5,1,4.5,2.6c0.7,1.2,0.9,2.6,0.5,3.9c-0.3,1-0.8,1.8-1.5,2.5l3.5,6.1c0.5-0.2,1-0.3,1.6-0.3c1.8,0,3.5,1,4.5,2.6
				c1.2,2.1,0.8,4.8-1,6.4l3.5,6.1c0.5-0.2,1-0.3,1.6-0.3c0.9,0,1.8,0.2,2.6,0.7c2.5,1.4,3.3,4.6,1.9,7c-0.9,1.6-2.6,2.6-4.5,2.6
				c-0.9,0-1.8-0.2-2.6-0.7c-1.2-0.7-2-1.8-2.4-3.1c-0.4-1.3-0.2-2.7,0.5-3.9c0.3-0.5,0.6-0.9,1-1.2l-3.5-6.1
				c-0.5,0.2-1,0.3-1.5,0.3c-1.8,0-3.5-1-4.5-2.6c-1.2-2.1-0.8-4.8,1-6.4l-3.5-6.1c-0.5,0.2-1,0.3-1.5,0.3c-1.8,0-3.5-1-4.5-2.6
				c-0.7-1.2-0.9-2.6-0.5-3.9c0.3-1,0.8-1.8,1.5-2.5l-3.5-6.1c-0.5,0.2-1,0.3-1.6,0.3c-0.5,0-1-0.1-1.5-0.3l-3.5,6.1
				c1.7,1.6,2.2,4.2,1,6.4c-0.9,1.6-2.6,2.6-4.5,2.6c-0.5,0-1-0.1-1.5-0.3l-3.5,6.1c1.7,1.6,2.2,4.2,1,6.4c-0.9,1.6-2.6,2.6-4.5,2.6
				c-0.5,0-1-0.1-1.5-0.3l-3.5,6.1c0.1,0,0.1,0.1,0.2,0.1c1,1,1.5,2.3,1.5,3.6c0,2.8-2.3,5.1-5.2,5.1c-0.5,0-1-0.1-1.6-0.3l-3.5,6.1
				c0.7,0.7,1.3,1.5,1.5,2.5c0.4,1.3,0.2,2.7-0.5,3.9c-0.9,1.6-2.6,2.6-4.5,2.6c-0.5,0-1-0.1-1.6-0.3l-3.5,6.1
				c0.1,0,0.1,0.1,0.2,0.1c1,1,1.5,2.3,1.5,3.6c0,1.4-0.5,2.7-1.5,3.6c-1,1-2.3,1.5-3.6,1.5c-0.5,0-1.1-0.1-1.6-0.3l-3.5,6.1
				c1.7,1.6,2.2,4.2,1,6.4c-0.9,1.6-2.6,2.6-4.5,2.6c-0.5,0-1-0.1-1.5-0.3l-3.5,6.1c0.7,0.7,1.3,1.5,1.5,2.5
				c0.4,1.3,0.2,2.7-0.5,3.9c-0.9,1.6-2.6,2.6-4.5,2.6c-0.5,0-1-0.1-1.5-0.3l-3.5,6.1c1.7,1.6,2.2,4.2,1,6.4
				c-0.9,1.6-2.6,2.6-4.5,2.6c-0.5,0-1-0.1-1.5-0.3l-3.5,6.1c1,0.9,1.7,2.3,1.7,3.8c0,2.8-2.3,5.2-5.2,5.2c-2.8,0-5.2-2.3-5.2-5.2
				c0-1.5,0.7-2.8,1.7-3.8l-3.5-6.1c-0.5,0.2-1,0.3-1.5,0.3c-1.8,0-3.5-1-4.5-2.6c-1.2-2.1-0.8-4.8,1-6.4l-3.5-6.1
				c-0.5,0.2-1,0.3-1.6,0.3c-1.8,0-3.5-1-4.5-2.6c-0.7-1.2-0.9-2.6-0.5-3.9c0.3-1,0.8-1.8,1.5-2.5l-3.5-6.1c-0.5,0.2-1,0.3-1.5,0.3
				c-1.8,0-3.5-1-4.5-2.6c-1.2-2.1-0.8-4.8,1-6.4l-3.5-6.1c-0.5,0.2-1,0.3-1.6,0.3c-2.8,0-5.1-2.3-5.1-5.1c0-1.4,0.5-2.7,1.5-3.6
				c1.9-1.9,5.3-2,7.3,0c1,1,1.5,2.3,1.5,3.6c0,1.5-0.7,2.8-1.7,3.8l3.5,6.1c0.5-0.2,1-0.3,1.5-0.3c1.8,0,3.5,1,4.5,2.6
				c1.2,2.1,0.8,4.8-1,6.4l3.5,6.1c0.5-0.2,1-0.3,1.5-0.3c1.8,0,3.5,1,4.5,2.6c1.2,2.1,0.8,4.8-1,6.4l3.5,6.1c0.5-0.2,1-0.3,1.6-0.3
				c1.8,0,3.5,1,4.5,2.6c1.2,2.1,0.8,4.8-1,6.4l3.5,6.1c0.5-0.2,1-0.3,1.6-0.3c0.5,0,1.1,0.1,1.6,0.3l3.5-6.1
				c-1.7-1.6-2.2-4.2-1-6.4c0.9-1.6,2.6-2.6,4.5-2.6c0.5,0,1,0.1,1.5,0.3l3.5-6.1c-1.7-1.6-2.2-4.2-1-6.4c0.9-1.6,2.6-2.6,4.5-2.6
				c0.5,0,1,0.1,1.5,0.3l3.5-6.1c-1.7-1.6-2.2-4.2-1-6.4c0.9-1.6,2.6-2.6,4.5-2.6c0.5,0,1,0.1,1.5,0.3l3.5-6.1
				c-0.1,0-0.1-0.1-0.2-0.1c-1-1-1.5-2.3-1.5-3.6c0-2.8,2.3-5.2,5.2-5.2c0.5,0,1,0.1,1.6,0.3l3.5-6.1c-0.7-0.7-1.3-1.5-1.5-2.5
				c-0.4-1.3-0.2-2.7,0.5-3.9c0.9-1.6,2.6-2.6,4.5-2.6c0.5,0,1,0.1,1.6,0.3l3.5-6.1c-0.1,0-0.1-0.1-0.2-0.1c-1-1-1.5-2.3-1.5-3.6
				c0-1.4,0.5-2.7,1.5-3.6c1.4-1.4,3.4-1.7,5.2-1.2l3.5-6.1c-1.7-1.6-2.2-4.2-1-6.4c0.9-1.6,2.6-2.6,4.5-2.6c0.5,0,1,0.1,1.5,0.3
				l3.5-6.1c-0.7-0.7-1.3-1.5-1.5-2.5c-0.4-1.3-0.2-2.7,0.5-3.9c0.9-1.6,2.6-2.6,4.5-2.6c0.5,0,1,0.1,1.5,0.3l3.5-6.1
				c-0.8-0.7-1.3-1.7-1.5-2.7h-7c-0.5,2.3-2.6,4.1-5,4.1c-2.5,0-4.5-1.7-5-4.1h-7c-0.5,2.3-2.6,4.1-5,4.1c-2.5,0-4.5-1.7-5-4.1h-7
				c0,0.1,0,0.1,0,0.2c-0.4,1.3-1.2,2.4-2.4,3.1c-0.8,0.5-1.7,0.7-2.6,0.7l0,0c-1.8,0-3.5-1-4.5-2.6c-1.4-2.5-0.6-5.6,1.9-7
				c0.8-0.5,1.7-0.7,2.6-0.7c1.8,0,3.5,1,4.5,2.6c0.3,0.5,0.4,1,0.5,1.5h7c0.5-2.3,2.6-4.1,5-4.1c2.5,0,4.5,1.7,5,4.1h7
				c0.5-2.3,2.6-4.1,5-4.1c2.5,0,4.5,1.7,5,4.1h7c0.1-0.5,0.3-1,0.6-1.5c0.3-0.5,0.6-0.9,1-1.2l-3.5-6.1c-0.5,0.2-1,0.3-1.5,0.3
				c-1.8,0-3.5-1-4.5-2.6c-1.2-2.1-0.8-4.8,1-6.4l-3.5-6.1c-0.5,0.2-1,0.3-1.5,0.3c-1.8,0-3.5-1-4.5-2.6c-0.7-1.2-0.9-2.6-0.5-3.9
				c0.3-1,0.8-1.8,1.5-2.5l-3.5-6.1c-0.5,0.2-1,0.3-1.6,0.3c-0.9,0-1.8-0.2-2.6-0.7c-2.5-1.4-3.3-4.6-1.9-7c0.9-1.6,2.6-2.6,4.5-2.6
				c0.9,0,1.8,0.2,2.6,0.7c2.5,1.4,3.3,4.6,1.9,7c-0.3,0.5-0.6,0.9-1,1.2l3.5,6.1c0.5-0.2,1-0.3,1.6-0.3c1.8,0,3.5,1,4.5,2.6
				c1.2,2.1,0.8,4.8-1,6.4l3.5,6.1c0.5-0.2,1-0.3,1.5-0.3c1.8,0,3.5,1,4.5,2.6c1.2,2.1,0.8,4.8-1,6.4l3.5,6.1c0.5-0.2,1-0.3,1.6-0.3
				c0.5,0,1,0.1,1.6,0.3l3.5-6.1c-1.7-1.6-2.2-4.2-1-6.4c0.9-1.6,2.6-2.6,4.5-2.6c0.5,0,1,0.1,1.5,0.3l3.5-6.1
				c-1.7-1.6-2.2-4.2-1-6.4c0.9-1.6,2.6-2.6,4.5-2.6c0.5,0,1,0.1,1.5,0.3l3.5-6.1c-0.1,0-0.1-0.1-0.2-0.1c-1-1-1.5-2.3-1.5-3.6
				c0-2.8,2.3-5.1,5.1-5.1c1.4,0,2.7,0.5,3.6,1.5c1,1,1.5,2.3,1.5,3.6c0,2.8-2.3,5.1-5.2,5.1c-0.5,0-1.1-0.1-1.6-0.3l-3.5,6.1
				c0.7,0.7,1.2,1.5,1.5,2.5c0.4,1.3,0.2,2.7-0.5,3.9c-0.9,1.6-2.6,2.6-4.5,2.6c-0.5,0-1-0.1-1.6-0.3l-3.5,6.1
				c0.7,0.7,1.2,1.5,1.5,2.5c0.4,1.3,0.2,2.7-0.5,3.9c-0.9,1.6-2.6,2.6-4.5,2.6c-0.5,0-1-0.1-1.5-0.3l-3.5,6.1
				c0.8,0.7,1.3,1.7,1.5,2.7h7c0.5-2.3,2.6-4.1,5-4.1c2.5,0,4.5,1.7,5,4.1h7c0.5-2.3,2.6-4.1,5-4.1c2.5,0,4.5,1.7,5,4.1h7
				c0-0.1,0-0.2,0-0.2c0.4-1.3,1.2-2.4,2.4-3.1c0.8-0.5,1.7-0.7,2.6-0.7c1.8,0,3.5,1,4.5,2.6C332.5,119.4,331.6,122.5,329.2,124z"/>
			<g>
				<path class="st0" d="M139,242.4c-2.9,0-5.5,1.2-7.4,3.2c-1.9-2-4.5-3.2-7.4-3.2c-2.9,0-5.5,1.2-7.4,3.2c-1.9-2-4.5-3.2-7.4-3.2
					c-2.9,0-5.5,1.2-7.4,3.2c-0.1-0.1-0.3-0.3-0.4-0.5c2-1.9,3.2-4.5,3.2-7.4c0-2.9-1.2-5.5-3.2-7.4c0.2-0.1,0.3-0.3,0.4-0.5
					c1.9,2,4.5,3.3,7.4,3.3c2.9,0,5.5-1.2,7.4-3.2c1.9,2,4.5,3.2,7.4,3.2c5.6,0,10.2-4.6,10.2-10.2s-4.6-10.2-10.2-10.2
					c-2.9,0-5.5,1.2-7.4,3.2c-1.9-2-4.5-3.2-7.4-3.2c-2.9,0-5.6,1.3-7.4,3.3c-0.1-0.2-0.3-0.3-0.4-0.5c2-1.9,3.2-4.5,3.2-7.4
					s-1.2-5.5-3.2-7.4c0.2-0.1,0.3-0.3,0.4-0.4c1.9,2,4.5,3.2,7.4,3.2c2.9,0,5.5-1.2,7.4-3.2c1.9,2,4.5,3.2,7.4,3.2
					c2.9,0,5.5-1.2,7.4-3.2c1.9,2,4.5,3.2,7.4,3.2c5.6,0,10.2-4.6,10.2-10.2c0-5.6-4.6-10.2-10.2-10.2c-2.9,0-5.5,1.2-7.4,3.2
					c-1.9-2-4.5-3.2-7.4-3.2c-2.9,0-5.5,1.2-7.4,3.2c-1.9-2-4.5-3.2-7.4-3.2c-2.9,0-5.5,1.2-7.4,3.2c-1.9-2-4.5-3.2-7.4-3.2
					c-5.6,0-10.2,4.6-10.2,10.2c0,2.9,1.2,5.5,3.2,7.4c-2,1.9-3.2,4.5-3.2,7.4s1.2,5.5,3.2,7.4c-2,1.9-3.2,4.5-3.2,7.4
					c0,2.9,1.2,5.5,3.2,7.4c-2,1.9-3.2,4.5-3.2,7.4c0,2.9,1.2,5.5,3.2,7.4c-2,1.9-3.2,4.5-3.2,7.4c0,5.6,4.6,10.2,10.2,10.2
					c2.9,0,5.5-1.2,7.4-3.2c1.9,2,4.5,3.2,7.4,3.2c2.9,0,5.5-1.2,7.4-3.2c1.9,2,4.5,3.2,7.4,3.2c2.9,0,5.5-1.2,7.4-3.2
					c1.9,2,4.5,3.2,7.4,3.2c5.6,0,10.2-4.6,10.2-10.2C149.2,247,144.6,242.4,139,242.4z M139,257.7c-2.5,0-4.5-1.7-5-4.1h-4.7
					c-0.5,2.3-2.6,4.1-5,4.1s-4.5-1.7-5-4.1h-4.7c-0.5,2.3-2.6,4.1-5,4.1c-2.5,0-4.5-1.7-5-4.1h-4.7c-0.5,2.3-2.6,4.1-5,4.1
					c-2.8,0-5.1-2.3-5.1-5.2c0-2.5,1.7-4.5,4.1-5v-4.7c-2.3-0.5-4.1-2.6-4.1-5c0-2.5,1.7-4.5,4.1-5V228c-2.3-0.5-4.1-2.6-4.1-5
					c0-2.5,1.7-4.5,4.1-5v-4.7c-2.3-0.5-4.1-2.6-4.1-5c0-2.5,1.7-4.5,4.1-5v-4.7c-2.3-0.5-4.1-2.6-4.1-5c0-2.8,2.3-5.2,5.1-5.2
					c2.5,0,4.5,1.7,5,4.1h4.7c0.5-2.3,2.6-4.1,5-4.1c2.5,0,4.5,1.7,5,4.1h4.7c0.5-2.3,2.6-4.1,5-4.1c2.5,0,4.5,1.7,5,4.1h4.7
					c0.5-2.3,2.6-4.1,5-4.1c2.8,0,5.2,2.3,5.2,5.2c0,2.8-2.3,5.1-5.2,5.1c-2.5,0-4.5-1.7-5-4.1h-4.7c-0.5,2.3-2.6,4.1-5,4.1
					c-2.5,0-4.5-1.7-5-4.1h-4.7c-0.5,2.3-2.6,4.1-5,4.1s-4.5-1.7-5-4.1h-4.7c-0.4,2-2,3.5-3.9,3.9v4.7c2.3,0.5,4.1,2.6,4.1,5
					c0,2.5-1.7,4.5-4.1,5v4.7c1.9,0.4,3.4,2,3.9,3.9h4.8c0.5-2.3,2.6-4.1,5-4.1s4.5,1.7,5,4.1h4.7c0.5-2.3,2.6-4.1,5-4.1
					c2.8,0,5.1,2.3,5.1,5.1s-2.3,5.1-5.1,5.1c-2.5,0-4.5-1.7-5-4.1h-4.7c-0.5,2.3-2.6,4.1-5,4.1s-4.5-1.7-5-4h-4.8
					c-0.4,1.9-1.9,3.5-3.9,3.9v4.7c2.3,0.5,4.1,2.6,4.1,5c0,2.5-1.7,4.5-4.1,5v4.7c2,0.4,3.5,2,3.9,3.9h4.7c0.5-2.3,2.6-4.1,5-4.1
					s4.5,1.7,5,4.1h4.7c0.5-2.3,2.6-4.1,5-4.1c2.5,0,4.5,1.7,5,4.1h4.7c0.5-2.3,2.6-4.1,5-4.1c2.8,0,5.2,2.3,5.2,5.1
					C144.2,255.4,141.9,257.7,139,257.7z"/>
			</g>
		</g>
	</g>
</g>
</svg>
